<?xml version="1.0" encoding="UTF-8" standalone="no"?>
<!DOCTYPE svg PUBLIC "-//W3C//DTD SVG 1.1//EN"
 "http://www.w3.org/Graphics/SVG/1.1/DTD/svg11.dtd">
<!-- Generated by graphviz version 2.43.0 (0)
 -->
<!-- Title: G Pages: 1 -->
<svg width="1258pt" height="634pt"
 viewBox="0.00 0.00 1258.00 634.00" xmlns="http://www.w3.org/2000/svg" xmlns:xlink="http://www.w3.org/1999/xlink">
<g id="graph0" class="graph" transform="scale(1 1) rotate(0) translate(4 630)">
<title>G</title>
<polygon fill="white" stroke="transparent" points="-4,4 -4,-630 1254,-630 1254,4 -4,4"/>
<g id="clust1" class="cluster">
<title>cluster_root</title>
<g id="a_clust1"><a xlink:title="eventq_index=0&#10;full_system=false&#10;sim_quantum=0&#10;time_sync_enable=false&#10;time_sync_period=100000000000&#10;time_sync_spin_threshold=100000000">
<path fill="#bab6ae" stroke="#000000" d="M20,-8C20,-8 1230,-8 1230,-8 1236,-8 1242,-14 1242,-20 1242,-20 1242,-606 1242,-606 1242,-612 1236,-618 1230,-618 1230,-618 20,-618 20,-618 14,-618 8,-612 8,-606 8,-606 8,-20 8,-20 8,-14 14,-8 20,-8"/>
<text text-anchor="middle" x="625" y="-602.8" font-family="Arial" font-size="14.00" fill="#000000">root </text>
<text text-anchor="middle" x="625" y="-587.8" font-family="Arial" font-size="14.00" fill="#000000">: Root</text>
</a>
</g>
</g>
<g id="clust2" class="cluster">
<title>cluster_system</title>
<g id="a_clust2"><a xlink:title="auto_unlink_shared_backstore=false&#10;cache_line_size=64&#10;eventq_index=0&#10;exit_on_work_items=false&#10;init_param=0&#10;m5ops_base=0&#10;mem_mode=timing&#10;mem_ranges=2147483648:4294967296 36507222016:68719476736 584115552256:1099511627776&#10;memories=&#10;mmap_using_noreserve=true&#10;multi_thread=false&#10;&#10;um_work_ids=16&#10;&#13;eadfile=&#10;&#13;edirect_paths=&#10;shadow_rom_ranges=&#10;shared_backstore=&#10;symbolfile=&#10;thermal_components=&#10;thermal_model=Null&#10;work_begin_ckpt_count=0&#10;work_begin_cpu_id_exit=&#45;1&#10;work_begin_exit_count=0&#10;work_cpus_ckpt_count=0&#10;work_end_ckpt_count=0&#10;work_end_exit_count=0&#10;work_item_id=&#45;1&#10;workload=system.workload">
<path fill="#e4e7eb" stroke="#000000" d="M28,-16C28,-16 1222,-16 1222,-16 1228,-16 1234,-22 1234,-28 1234,-28 1234,-560 1234,-560 1234,-566 1228,-572 1222,-572 1222,-572 28,-572 28,-572 22,-572 16,-566 16,-560 16,-560 16,-28 16,-28 16,-22 22,-16 28,-16"/>
<text text-anchor="middle" x="625" y="-556.8" font-family="Arial" font-size="14.00" fill="#000000">system </text>
<text text-anchor="middle" x="625" y="-541.8" font-family="Arial" font-size="14.00" fill="#000000">: System</text>
</a>
</g>
</g>
<g id="clust5" class="cluster">
<title>cluster_system_cpu</title>
<g id="a_clust5"><a xlink:title="clk_domain=system.clk_domain&#10;cpu_id=&#45;1&#10;elastic_req=false&#10;eventq_index=0&#10;max_outstanding_reqs=0&#10;&#10;umThreads=1&#10;power_model=&#10;power_state=system.cpu.power_state&#10;progress_check=1000000000&#10;sids=&#10;socket_id=0&#10;ssids=&#10;stream_gen=none&#10;system=system">
<path fill="#bab6ae" stroke="#000000" d="M782,-24C782,-24 1168,-24 1168,-24 1174,-24 1180,-30 1180,-36 1180,-36 1180,-156 1180,-156 1180,-162 1174,-168 1168,-168 1168,-168 782,-168 782,-168 776,-168 770,-162 770,-156 770,-156 770,-36 770,-36 770,-30 776,-24 782,-24"/>
<text text-anchor="middle" x="975" y="-152.8" font-family="Arial" font-size="14.00" fill="#000000">cpu </text>
<text text-anchor="middle" x="975" y="-137.8" font-family="Arial" font-size="14.00" fill="#000000">: PyTrafficGen</text>
</a>
</g>
</g>
<g id="clust7" class="cluster">
<title>cluster_system_cpu_icache</title>
<g id="a_clust7"><a xlink:title="addr_ranges=0:18446744073709551615&#10;assoc=2&#10;clk_domain=system.clk_domain&#10;clusivity=mostly_incl&#10;compressor=Null&#10;data_latency=2&#10;demand_mshr_reserve=1&#10;eventq_index=0&#10;is_read_only=true&#10;max_miss_count=0&#10;move_contractions=true&#10;mshrs=4&#10;power_model=&#10;power_state=system.cpu.icache.power_state&#10;prefetch_on_access=false&#10;prefetch_on_pf_hit=false&#10;prefetcher=Null&#10;&#13;eplace_expansions=true&#10;&#13;eplacement_policy=system.cpu.icache.replacement_policy&#10;&#13;esponse_latency=2&#10;sequential_access=false&#10;size=32768&#10;system=system&#10;tag_latency=2&#10;tags=system.cpu.icache.tags&#10;tgts_per_mshr=20&#10;warmup_percentage=0&#10;write_allocator=Null&#10;write_buffers=8&#10;writeback_clean=true">
<path fill="#9f9c95" stroke="#000000" d="M1088,-32C1088,-32 1160,-32 1160,-32 1166,-32 1172,-38 1172,-44 1172,-44 1172,-110 1172,-110 1172,-116 1166,-122 1160,-122 1160,-122 1088,-122 1088,-122 1082,-122 1076,-116 1076,-110 1076,-110 1076,-44 1076,-44 1076,-38 1082,-32 1088,-32"/>
<text text-anchor="middle" x="1124" y="-106.8" font-family="Arial" font-size="14.00" fill="#000000">icache </text>
<text text-anchor="middle" x="1124" y="-91.8" font-family="Arial" font-size="14.00" fill="#000000">: L1_ICache</text>
</a>
</g>
</g>
<g id="clust13" class="cluster">
<title>cluster_system_cpu_dcache</title>
<g id="a_clust13"><a xlink:title="addr_ranges=0:18446744073709551615&#10;assoc=2&#10;clk_domain=system.clk_domain&#10;clusivity=mostly_incl&#10;compressor=Null&#10;data_latency=2&#10;demand_mshr_reserve=1&#10;eventq_index=0&#10;is_read_only=false&#10;max_miss_count=0&#10;move_contractions=true&#10;mshrs=4&#10;power_model=&#10;power_state=system.cpu.dcache.power_state&#10;prefetch_on_access=false&#10;prefetch_on_pf_hit=false&#10;prefetcher=Null&#10;&#13;eplace_expansions=true&#10;&#13;eplacement_policy=system.cpu.dcache.replacement_policy&#10;&#13;esponse_latency=2&#10;sequential_access=false&#10;size=32768&#10;system=system&#10;tag_latency=2&#10;tags=system.cpu.dcache.tags&#10;tgts_per_mshr=20&#10;warmup_percentage=0&#10;write_allocator=Null&#10;write_buffers=8&#10;writeback_clean=false">
<path fill="#9f9c95" stroke="#000000" d="M984,-32C984,-32 1056,-32 1056,-32 1062,-32 1068,-38 1068,-44 1068,-44 1068,-110 1068,-110 1068,-116 1062,-122 1056,-122 1056,-122 984,-122 984,-122 978,-122 972,-116 972,-110 972,-110 972,-44 972,-44 972,-38 978,-32 984,-32"/>
<text text-anchor="middle" x="1020" y="-106.8" font-family="Arial" font-size="14.00" fill="#000000">dcache </text>
<text text-anchor="middle" x="1020" y="-91.8" font-family="Arial" font-size="14.00" fill="#000000">: L1_DCache</text>
</a>
</g>
</g>
<g id="clust19" class="cluster">
<title>cluster_system_cpu_l2cache</title>
<g id="a_clust19"><a xlink:title="addr_ranges=0:18446744073709551615&#10;assoc=8&#10;clk_domain=system.clk_domain&#10;clusivity=mostly_incl&#10;compressor=Null&#10;data_latency=20&#10;demand_mshr_reserve=1&#10;eventq_index=0&#10;is_read_only=false&#10;max_miss_count=0&#10;move_contractions=true&#10;mshrs=20&#10;power_model=&#10;power_state=system.cpu.l2cache.power_state&#10;prefetch_on_access=false&#10;prefetch_on_pf_hit=false&#10;prefetcher=Null&#10;&#13;eplace_expansions=true&#10;&#13;eplacement_policy=system.cpu.l2cache.replacement_policy&#10;&#13;esponse_latency=20&#10;sequential_access=false&#10;size=131072&#10;system=system&#10;tag_latency=20&#10;tags=system.cpu.l2cache.tags&#10;tgts_per_mshr=12&#10;warmup_percentage=0&#10;write_allocator=Null&#10;write_buffers=8&#10;writeback_clean=false">
<path fill="#9f9c95" stroke="#000000" d="M790,-32C790,-32 952,-32 952,-32 958,-32 964,-38 964,-44 964,-44 964,-110 964,-110 964,-116 958,-122 952,-122 952,-122 790,-122 790,-122 784,-122 778,-116 778,-110 778,-110 778,-44 778,-44 778,-38 784,-32 790,-32"/>
<text text-anchor="middle" x="871" y="-106.8" font-family="Arial" font-size="14.00" fill="#000000">l2cache </text>
<text text-anchor="middle" x="871" y="-91.8" font-family="Arial" font-size="14.00" fill="#000000">: L2Cache</text>
</a>
</g>
</g>
<g id="clust25" class="cluster">
<title>cluster_system_dma_devices0</title>
<g id="a_clust25"><a xlink:title="clk_domain=system.dma_devices0.clk_domain&#10;cpu_id=&#45;1&#10;elastic_req=false&#10;eventq_index=0&#10;max_outstanding_reqs=0&#10;&#10;umThreads=1&#10;power_model=&#10;power_state=system.dma_devices0.power_state&#10;progress_check=1000000000&#10;sids=&#10;socket_id=0&#10;ssids=&#10;stream_gen=none&#10;system=system">
<path fill="#bab6ae" stroke="#000000" d="M1118,-436C1118,-436 1202,-436 1202,-436 1208,-436 1214,-442 1214,-448 1214,-448 1214,-514 1214,-514 1214,-520 1208,-526 1202,-526 1202,-526 1118,-526 1118,-526 1112,-526 1106,-520 1106,-514 1106,-514 1106,-448 1106,-448 1106,-442 1112,-436 1118,-436"/>
<text text-anchor="middle" x="1160" y="-510.8" font-family="Arial" font-size="14.00" fill="#000000">dma_devices0 </text>
<text text-anchor="middle" x="1160" y="-495.8" font-family="Arial" font-size="14.00" fill="#000000">: PyTrafficGen</text>
</a>
</g>
</g>
<g id="clust28" class="cluster">
<title>cluster_system_dma_devices1</title>
<g id="a_clust28"><a xlink:title="clk_domain=system.dma_devices1.clk_domain&#10;cpu_id=&#45;1&#10;elastic_req=false&#10;eventq_index=0&#10;max_outstanding_reqs=0&#10;&#10;umThreads=1&#10;power_model=&#10;power_state=system.dma_devices1.power_state&#10;progress_check=1000000000&#10;sids=&#10;socket_id=0&#10;ssids=&#10;stream_gen=none&#10;system=system">
<path fill="#bab6ae" stroke="#000000" d="M871,-436C871,-436 955,-436 955,-436 961,-436 967,-442 967,-448 967,-448 967,-514 967,-514 967,-520 961,-526 955,-526 955,-526 871,-526 871,-526 865,-526 859,-520 859,-514 859,-514 859,-448 859,-448 859,-442 865,-436 871,-436"/>
<text text-anchor="middle" x="913" y="-510.8" font-family="Arial" font-size="14.00" fill="#000000">dma_devices1 </text>
<text text-anchor="middle" x="913" y="-495.8" font-family="Arial" font-size="14.00" fill="#000000">: PyTrafficGen</text>
</a>
</g>
</g>
<g id="clust31" class="cluster">
<title>cluster_system_dma_devices2</title>
<g id="a_clust31"><a xlink:title="clk_domain=system.dma_devices2.clk_domain&#10;cpu_id=&#45;1&#10;elastic_req=false&#10;eventq_index=0&#10;max_outstanding_reqs=0&#10;&#10;umThreads=1&#10;power_model=&#10;power_state=system.dma_devices2.power_state&#10;progress_check=1000000000&#10;sids=&#10;socket_id=0&#10;ssids=&#10;stream_gen=none&#10;system=system">
<path fill="#bab6ae" stroke="#000000" d="M295,-436C295,-436 379,-436 379,-436 385,-436 391,-442 391,-448 391,-448 391,-514 391,-514 391,-520 385,-526 379,-526 379,-526 295,-526 295,-526 289,-526 283,-520 283,-514 283,-514 283,-448 283,-448 283,-442 289,-436 295,-436"/>
<text text-anchor="middle" x="337" y="-510.8" font-family="Arial" font-size="14.00" fill="#000000">dma_devices2 </text>
<text text-anchor="middle" x="337" y="-495.8" font-family="Arial" font-size="14.00" fill="#000000">: PyTrafficGen</text>
</a>
</g>
</g>
<g id="clust34" class="cluster">
<title>cluster_system_dma_devices3</title>
<g id="a_clust34"><a xlink:title="clk_domain=system.dma_devices3.clk_domain&#10;cpu_id=&#45;1&#10;elastic_req=false&#10;eventq_index=0&#10;max_outstanding_reqs=0&#10;&#10;umThreads=1&#10;power_model=&#10;power_state=system.dma_devices3.power_state&#10;progress_check=1000000000&#10;sids=&#10;socket_id=0&#10;ssids=&#10;stream_gen=none&#10;system=system">
<path fill="#bab6ae" stroke="#000000" d="M48,-436C48,-436 132,-436 132,-436 138,-436 144,-442 144,-448 144,-448 144,-514 144,-514 144,-520 138,-526 132,-526 132,-526 48,-526 48,-526 42,-526 36,-520 36,-514 36,-514 36,-448 36,-448 36,-442 42,-436 48,-436"/>
<text text-anchor="middle" x="90" y="-510.8" font-family="Arial" font-size="14.00" fill="#000000">dma_devices3 </text>
<text text-anchor="middle" x="90" y="-495.8" font-family="Arial" font-size="14.00" fill="#000000">: PyTrafficGen</text>
</a>
</g>
</g>
<g id="clust37" class="cluster">
<title>cluster_system_comm_monitor_dma_devices0</title>
<g id="a_clust37"><a xlink:title="bandwidth_bins=20&#10;burst_length_bins=20&#10;disable_addr_dists=true&#10;disable_bandwidth_hists=false&#10;disable_burst_length_hists=false&#10;disable_itt_dists=false&#10;disable_latency_hists=false&#10;disable_outstanding_hists=false&#10;disable_transaction_hists=false&#10;eventq_index=0&#10;itt_bins=20&#10;itt_max_bin=100000&#10;&#10;atency_bins=20&#10;outstanding_bins=20&#10;&#13;ead_addr_mask=18446744073709551615&#10;sample_period=1000000000&#10;system=system&#10;transaction_bins=20&#10;write_addr_mask=18446744073709551615">
<path fill="#bab6ae" stroke="#000000" d="M992,-306C992,-306 1214,-306 1214,-306 1220,-306 1226,-312 1226,-318 1226,-318 1226,-384 1226,-384 1226,-390 1220,-396 1214,-396 1214,-396 992,-396 992,-396 986,-396 980,-390 980,-384 980,-384 980,-318 980,-318 980,-312 986,-306 992,-306"/>
<text text-anchor="middle" x="1103" y="-380.8" font-family="Arial" font-size="14.00" fill="#000000">comm_monitor_dma_devices0 </text>
<text text-anchor="middle" x="1103" y="-365.8" font-family="Arial" font-size="14.00" fill="#000000">: CommMonitor</text>
</a>
</g>
</g>
<g id="clust38" class="cluster">
<title>cluster_system_comm_monitor_dma_devices1</title>
<g id="a_clust38"><a xlink:title="bandwidth_bins=20&#10;burst_length_bins=20&#10;disable_addr_dists=true&#10;disable_bandwidth_hists=false&#10;disable_burst_length_hists=false&#10;disable_itt_dists=false&#10;disable_latency_hists=false&#10;disable_outstanding_hists=false&#10;disable_transaction_hists=false&#10;eventq_index=0&#10;itt_bins=20&#10;itt_max_bin=100000&#10;&#10;atency_bins=20&#10;outstanding_bins=20&#10;&#13;ead_addr_mask=18446744073709551615&#10;sample_period=1000000000&#10;system=system&#10;transaction_bins=20&#10;write_addr_mask=18446744073709551615">
<path fill="#bab6ae" stroke="#000000" d="M738,-306C738,-306 960,-306 960,-306 966,-306 972,-312 972,-318 972,-318 972,-384 972,-384 972,-390 966,-396 960,-396 960,-396 738,-396 738,-396 732,-396 726,-390 726,-384 726,-384 726,-318 726,-318 726,-312 732,-306 738,-306"/>
<text text-anchor="middle" x="849" y="-380.8" font-family="Arial" font-size="14.00" fill="#000000">comm_monitor_dma_devices1 </text>
<text text-anchor="middle" x="849" y="-365.8" font-family="Arial" font-size="14.00" fill="#000000">: CommMonitor</text>
</a>
</g>
</g>
<g id="clust39" class="cluster">
<title>cluster_system_comm_monitor_dma_devices2</title>
<g id="a_clust39"><a xlink:title="bandwidth_bins=20&#10;burst_length_bins=20&#10;disable_addr_dists=true&#10;disable_bandwidth_hists=false&#10;disable_burst_length_hists=false&#10;disable_itt_dists=false&#10;disable_latency_hists=false&#10;disable_outstanding_hists=false&#10;disable_transaction_hists=false&#10;eventq_index=0&#10;itt_bins=20&#10;itt_max_bin=100000&#10;&#10;atency_bins=20&#10;outstanding_bins=20&#10;&#13;ead_addr_mask=18446744073709551615&#10;sample_period=1000000000&#10;system=system&#10;transaction_bins=20&#10;write_addr_mask=18446744073709551615">
<path fill="#bab6ae" stroke="#000000" d="M290,-306C290,-306 512,-306 512,-306 518,-306 524,-312 524,-318 524,-318 524,-384 524,-384 524,-390 518,-396 512,-396 512,-396 290,-396 290,-396 284,-396 278,-390 278,-384 278,-384 278,-318 278,-318 278,-312 284,-306 290,-306"/>
<text text-anchor="middle" x="401" y="-380.8" font-family="Arial" font-size="14.00" fill="#000000">comm_monitor_dma_devices2 </text>
<text text-anchor="middle" x="401" y="-365.8" font-family="Arial" font-size="14.00" fill="#000000">: CommMonitor</text>
</a>
</g>
</g>
<g id="clust40" class="cluster">
<title>cluster_system_comm_monitor_dma_devices3</title>
<g id="a_clust40"><a xlink:title="bandwidth_bins=20&#10;burst_length_bins=20&#10;disable_addr_dists=true&#10;disable_bandwidth_hists=false&#10;disable_burst_length_hists=false&#10;disable_itt_dists=false&#10;disable_latency_hists=false&#10;disable_outstanding_hists=false&#10;disable_transaction_hists=false&#10;eventq_index=0&#10;itt_bins=20&#10;itt_max_bin=100000&#10;&#10;atency_bins=20&#10;outstanding_bins=20&#10;&#13;ead_addr_mask=18446744073709551615&#10;sample_period=1000000000&#10;system=system&#10;transaction_bins=20&#10;write_addr_mask=18446744073709551615">
<path fill="#bab6ae" stroke="#000000" d="M36,-306C36,-306 258,-306 258,-306 264,-306 270,-312 270,-318 270,-318 270,-384 270,-384 270,-390 264,-396 258,-396 258,-396 36,-396 36,-396 30,-396 24,-390 24,-384 24,-384 24,-318 24,-318 24,-312 30,-306 36,-306"/>
<text text-anchor="middle" x="147" y="-380.8" font-family="Arial" font-size="14.00" fill="#000000">comm_monitor_dma_devices3 </text>
<text text-anchor="middle" x="147" y="-365.8" font-family="Arial" font-size="14.00" fill="#000000">: CommMonitor</text>
</a>
</g>
</g>
<g id="clust41" class="cluster">
<title>cluster_system_l2bus</title>
<g id="a_clust41"><a xlink:title="clk_domain=system.clk_domain&#10;eventq_index=0&#10;forward_latency=0&#10;frontend_latency=1&#10;header_latency=1&#10;max_outstanding_snoops=512&#10;max_routing_table_size=512&#10;point_of_coherency=false&#10;point_of_unification=true&#10;power_model=&#10;power_state=system.l2bus.power_state&#10;&#13;esponse_latency=1&#10;snoop_filter=system.l2bus.snoop_filter&#10;snoop_response_latency=1&#10;system=system&#10;use_default_range=false&#10;width=32">
<path fill="#6f798c" stroke="#000000" d="M887,-176C887,-176 1123,-176 1123,-176 1129,-176 1135,-182 1135,-188 1135,-188 1135,-254 1135,-254 1135,-260 1129,-266 1123,-266 1123,-266 887,-266 887,-266 881,-266 875,-260 875,-254 875,-254 875,-188 875,-188 875,-182 881,-176 887,-176"/>
<text text-anchor="middle" x="1005" y="-250.8" font-family="Arial" font-size="14.00" fill="#000000">l2bus </text>
<text text-anchor="middle" x="1005" y="-235.8" font-family="Arial" font-size="14.00" fill="#000000">: L2XBar</text>
</a>
</g>
</g>
<g id="clust44" class="cluster">
<title>cluster_system_l3bus</title>
<g id="a_clust44"><a xlink:title="clk_domain=system.clk_domain&#10;eventq_index=0&#10;forward_latency=0&#10;frontend_latency=1&#10;header_latency=1&#10;max_outstanding_snoops=512&#10;max_routing_table_size=512&#10;point_of_coherency=false&#10;point_of_unification=true&#10;power_model=&#10;power_state=system.l3bus.power_state&#10;&#13;esponse_latency=1&#10;snoop_filter=system.l3bus.snoop_filter&#10;snoop_response_latency=1&#10;system=system&#10;use_default_range=false&#10;width=32">
<path fill="#6f798c" stroke="#000000" d="M619,-176C619,-176 855,-176 855,-176 861,-176 867,-182 867,-188 867,-188 867,-254 867,-254 867,-260 861,-266 855,-266 855,-266 619,-266 619,-266 613,-266 607,-260 607,-254 607,-254 607,-188 607,-188 607,-182 613,-176 619,-176"/>
<text text-anchor="middle" x="737" y="-250.8" font-family="Arial" font-size="14.00" fill="#000000">l3bus </text>
<text text-anchor="middle" x="737" y="-235.8" font-family="Arial" font-size="14.00" fill="#000000">: L3XBar</text>
</a>
</g>
</g>
<g id="clust47" class="cluster">
<title>cluster_system_l3cache</title>
<g id="a_clust47"><a xlink:title="addr_ranges=0:18446744073709551615&#10;assoc=16&#10;clk_domain=system.clk_domain&#10;clusivity=mostly_incl&#10;compressor=Null&#10;data_latency=32&#10;demand_mshr_reserve=1&#10;eventq_index=0&#10;is_read_only=false&#10;max_miss_count=0&#10;move_contractions=true&#10;mshrs=32&#10;power_model=&#10;power_state=system.l3cache.power_state&#10;prefetch_on_access=false&#10;prefetch_on_pf_hit=false&#10;prefetcher=Null&#10;&#13;eplace_expansions=true&#10;&#13;eplacement_policy=system.l3cache.replacement_policy&#10;&#13;esponse_latency=32&#10;sequential_access=false&#10;size=2097152&#10;system=system&#10;tag_latency=32&#10;tags=system.l3cache.tags&#10;tgts_per_mshr=24&#10;warmup_percentage=0&#10;write_allocator=Null&#10;write_buffers=16&#10;writeback_clean=false">
<path fill="#bab6ae" stroke="#000000" d="M544,-306C544,-306 706,-306 706,-306 712,-306 718,-312 718,-318 718,-318 718,-384 718,-384 718,-390 712,-396 706,-396 706,-396 544,-396 544,-396 538,-396 532,-390 532,-384 532,-384 532,-318 532,-318 532,-312 538,-306 544,-306"/>
<text text-anchor="middle" x="625" y="-380.8" font-family="Arial" font-size="14.00" fill="#000000">l3cache </text>
<text text-anchor="middle" x="625" y="-365.8" font-family="Arial" font-size="14.00" fill="#000000">: L3Cache</text>
</a>
</g>
</g>
<g id="clust53" class="cluster">
<title>cluster_system_membus</title>
<g id="a_clust53"><a xlink:title="clk_domain=system.clk_domain&#10;eventq_index=0&#10;forward_latency=4&#10;frontend_latency=3&#10;header_latency=1&#10;max_outstanding_snoops=512&#10;max_routing_table_size=512&#10;point_of_coherency=true&#10;point_of_unification=true&#10;power_model=&#10;power_state=system.membus.power_state&#10;&#13;esponse_latency=2&#10;snoop_filter=system.membus.snoop_filter&#10;snoop_response_latency=4&#10;system=system&#10;use_default_range=false&#10;width=16">
<path fill="#6f798c" stroke="#000000" d="M530,-436C530,-436 630,-436 630,-436 636,-436 642,-442 642,-448 642,-448 642,-514 642,-514 642,-520 636,-526 630,-526 630,-526 530,-526 530,-526 524,-526 518,-520 518,-514 518,-514 518,-448 518,-448 518,-442 524,-436 530,-436"/>
<text text-anchor="middle" x="580" y="-510.8" font-family="Arial" font-size="14.00" fill="#000000">membus </text>
<text text-anchor="middle" x="580" y="-495.8" font-family="Arial" font-size="14.00" fill="#000000">: SystemXBar</text>
</a>
</g>
</g>
<!-- system_cpu_icache_mem_side -->
<g id="node1" class="node">
<title>system_cpu_icache_mem_side</title>
<path fill="#7f7c77" stroke="#000000" d="M1152,-76C1152,-76 1096,-76 1096,-76 1090,-76 1084,-70 1084,-64 1084,-64 1084,-52 1084,-52 1084,-46 1090,-40 1096,-40 1096,-40 1152,-40 1152,-40 1158,-40 1164,-46 1164,-52 1164,-52 1164,-64 1164,-64 1164,-70 1158,-76 1152,-76"/>
<text text-anchor="middle" x="1124" y="-54.3" font-family="Arial" font-size="14.00" fill="#000000">mem_side</text>
</g>
<!-- system_cpu_dcache_mem_side -->
<g id="node2" class="node">
<title>system_cpu_dcache_mem_side</title>
<path fill="#7f7c77" stroke="#000000" d="M1048,-76C1048,-76 992,-76 992,-76 986,-76 980,-70 980,-64 980,-64 980,-52 980,-52 980,-46 986,-40 992,-40 992,-40 1048,-40 1048,-40 1054,-40 1060,-46 1060,-52 1060,-52 1060,-64 1060,-64 1060,-70 1054,-76 1048,-76"/>
<text text-anchor="middle" x="1020" y="-54.3" font-family="Arial" font-size="14.00" fill="#000000">mem_side</text>
</g>
<!-- system_cpu_l2cache_cpu_side -->
<g id="node3" class="node">
<title>system_cpu_l2cache_cpu_side</title>
<path fill="#7f7c77" stroke="#000000" d="M943.5,-76C943.5,-76 896.5,-76 896.5,-76 890.5,-76 884.5,-70 884.5,-64 884.5,-64 884.5,-52 884.5,-52 884.5,-46 890.5,-40 896.5,-40 896.5,-40 943.5,-40 943.5,-40 949.5,-40 955.5,-46 955.5,-52 955.5,-52 955.5,-64 955.5,-64 955.5,-70 949.5,-76 943.5,-76"/>
<text text-anchor="middle" x="920" y="-54.3" font-family="Arial" font-size="14.00" fill="#000000">cpu_side</text>
</g>
<!-- system_cpu_l2cache_mem_side -->
<g id="node4" class="node">
<title>system_cpu_l2cache_mem_side</title>
<path fill="#7f7c77" stroke="#000000" d="M854,-76C854,-76 798,-76 798,-76 792,-76 786,-70 786,-64 786,-64 786,-52 786,-52 786,-46 792,-40 798,-40 798,-40 854,-40 854,-40 860,-40 866,-46 866,-52 866,-52 866,-64 866,-64 866,-70 860,-76 854,-76"/>
<text text-anchor="middle" x="826" y="-54.3" font-family="Arial" font-size="14.00" fill="#000000">mem_side</text>
</g>
<!-- system_dma_devices0_port -->
<g id="node5" class="node">
<title>system_dma_devices0_port</title>
<path fill="#94918b" stroke="#000000" d="M1182,-480C1182,-480 1152,-480 1152,-480 1146,-480 1140,-474 1140,-468 1140,-468 1140,-456 1140,-456 1140,-450 1146,-444 1152,-444 1152,-444 1182,-444 1182,-444 1188,-444 1194,-450 1194,-456 1194,-456 1194,-468 1194,-468 1194,-474 1188,-480 1182,-480"/>
<text text-anchor="middle" x="1167" y="-458.3" font-family="Arial" font-size="14.00" fill="#000000">port</text>
</g>
<!-- system_comm_monitor_dma_devices0_cpu_side_port -->
<g id="node10" class="node">
<title>system_comm_monitor_dma_devices0_cpu_side_port</title>
<path fill="#94918b" stroke="#000000" d="M1205.5,-350C1205.5,-350 1128.5,-350 1128.5,-350 1122.5,-350 1116.5,-344 1116.5,-338 1116.5,-338 1116.5,-326 1116.5,-326 1116.5,-320 1122.5,-314 1128.5,-314 1128.5,-314 1205.5,-314 1205.5,-314 1211.5,-314 1217.5,-320 1217.5,-326 1217.5,-326 1217.5,-338 1217.5,-338 1217.5,-344 1211.5,-350 1205.5,-350"/>
<text text-anchor="middle" x="1167" y="-328.3" font-family="Arial" font-size="14.00" fill="#000000">cpu_side_port</text>
</g>
<!-- system_dma_devices0_port&#45;&gt;system_comm_monitor_dma_devices0_cpu_side_port -->
<g id="edge1" class="edge">
<title>system_dma_devices0_port&#45;&gt;system_comm_monitor_dma_devices0_cpu_side_port</title>
<path fill="none" stroke="black" d="M1167,-443.74C1167,-422.36 1167,-385.69 1167,-360.44"/>
<polygon fill="black" stroke="black" points="1170.5,-360.4 1167,-350.4 1163.5,-360.4 1170.5,-360.4"/>
</g>
<!-- system_dma_devices1_port -->
<g id="node6" class="node">
<title>system_dma_devices1_port</title>
<path fill="#94918b" stroke="#000000" d="M928,-480C928,-480 898,-480 898,-480 892,-480 886,-474 886,-468 886,-468 886,-456 886,-456 886,-450 892,-444 898,-444 898,-444 928,-444 928,-444 934,-444 940,-450 940,-456 940,-456 940,-468 940,-468 940,-474 934,-480 928,-480"/>
<text text-anchor="middle" x="913" y="-458.3" font-family="Arial" font-size="14.00" fill="#000000">port</text>
</g>
<!-- system_comm_monitor_dma_devices1_cpu_side_port -->
<g id="node12" class="node">
<title>system_comm_monitor_dma_devices1_cpu_side_port</title>
<path fill="#94918b" stroke="#000000" d="M951.5,-350C951.5,-350 874.5,-350 874.5,-350 868.5,-350 862.5,-344 862.5,-338 862.5,-338 862.5,-326 862.5,-326 862.5,-320 868.5,-314 874.5,-314 874.5,-314 951.5,-314 951.5,-314 957.5,-314 963.5,-320 963.5,-326 963.5,-326 963.5,-338 963.5,-338 963.5,-344 957.5,-350 951.5,-350"/>
<text text-anchor="middle" x="913" y="-328.3" font-family="Arial" font-size="14.00" fill="#000000">cpu_side_port</text>
</g>
<!-- system_dma_devices1_port&#45;&gt;system_comm_monitor_dma_devices1_cpu_side_port -->
<g id="edge2" class="edge">
<title>system_dma_devices1_port&#45;&gt;system_comm_monitor_dma_devices1_cpu_side_port</title>
<path fill="none" stroke="black" d="M913,-443.74C913,-422.36 913,-385.69 913,-360.44"/>
<polygon fill="black" stroke="black" points="916.5,-360.4 913,-350.4 909.5,-360.4 916.5,-360.4"/>
</g>
<!-- system_dma_devices2_port -->
<g id="node7" class="node">
<title>system_dma_devices2_port</title>
<path fill="#94918b" stroke="#000000" d="M352,-480C352,-480 322,-480 322,-480 316,-480 310,-474 310,-468 310,-468 310,-456 310,-456 310,-450 316,-444 322,-444 322,-444 352,-444 352,-444 358,-444 364,-450 364,-456 364,-456 364,-468 364,-468 364,-474 358,-480 352,-480"/>
<text text-anchor="middle" x="337" y="-458.3" font-family="Arial" font-size="14.00" fill="#000000">port</text>
</g>
<!-- system_comm_monitor_dma_devices2_cpu_side_port -->
<g id="node14" class="node">
<title>system_comm_monitor_dma_devices2_cpu_side_port</title>
<path fill="#94918b" stroke="#000000" d="M375.5,-350C375.5,-350 298.5,-350 298.5,-350 292.5,-350 286.5,-344 286.5,-338 286.5,-338 286.5,-326 286.5,-326 286.5,-320 292.5,-314 298.5,-314 298.5,-314 375.5,-314 375.5,-314 381.5,-314 387.5,-320 387.5,-326 387.5,-326 387.5,-338 387.5,-338 387.5,-344 381.5,-350 375.5,-350"/>
<text text-anchor="middle" x="337" y="-328.3" font-family="Arial" font-size="14.00" fill="#000000">cpu_side_port</text>
</g>
<!-- system_dma_devices2_port&#45;&gt;system_comm_monitor_dma_devices2_cpu_side_port -->
<g id="edge3" class="edge">
<title>system_dma_devices2_port&#45;&gt;system_comm_monitor_dma_devices2_cpu_side_port</title>
<path fill="none" stroke="black" d="M337,-443.74C337,-422.36 337,-385.69 337,-360.44"/>
<polygon fill="black" stroke="black" points="340.5,-360.4 337,-350.4 333.5,-360.4 340.5,-360.4"/>
</g>
<!-- system_dma_devices3_port -->
<g id="node8" class="node">
<title>system_dma_devices3_port</title>
<path fill="#94918b" stroke="#000000" d="M98,-480C98,-480 68,-480 68,-480 62,-480 56,-474 56,-468 56,-468 56,-456 56,-456 56,-450 62,-444 68,-444 68,-444 98,-444 98,-444 104,-444 110,-450 110,-456 110,-456 110,-468 110,-468 110,-474 104,-480 98,-480"/>
<text text-anchor="middle" x="83" y="-458.3" font-family="Arial" font-size="14.00" fill="#000000">port</text>
</g>
<!-- system_comm_monitor_dma_devices3_cpu_side_port -->
<g id="node16" class="node">
<title>system_comm_monitor_dma_devices3_cpu_side_port</title>
<path fill="#94918b" stroke="#000000" d="M121.5,-350C121.5,-350 44.5,-350 44.5,-350 38.5,-350 32.5,-344 32.5,-338 32.5,-338 32.5,-326 32.5,-326 32.5,-320 38.5,-314 44.5,-314 44.5,-314 121.5,-314 121.5,-314 127.5,-314 133.5,-320 133.5,-326 133.5,-326 133.5,-338 133.5,-338 133.5,-344 127.5,-350 121.5,-350"/>
<text text-anchor="middle" x="83" y="-328.3" font-family="Arial" font-size="14.00" fill="#000000">cpu_side_port</text>
</g>
<!-- system_dma_devices3_port&#45;&gt;system_comm_monitor_dma_devices3_cpu_side_port -->
<g id="edge4" class="edge">
<title>system_dma_devices3_port&#45;&gt;system_comm_monitor_dma_devices3_cpu_side_port</title>
<path fill="none" stroke="black" d="M83,-443.74C83,-422.36 83,-385.69 83,-360.44"/>
<polygon fill="black" stroke="black" points="86.5,-360.4 83,-350.4 79.5,-360.4 86.5,-360.4"/>
</g>
<!-- system_comm_monitor_dma_devices0_mem_side_port -->
<g id="node9" class="node">
<title>system_comm_monitor_dma_devices0_mem_side_port</title>
<path fill="#94918b" stroke="#000000" d="M1086.5,-350C1086.5,-350 999.5,-350 999.5,-350 993.5,-350 987.5,-344 987.5,-338 987.5,-338 987.5,-326 987.5,-326 987.5,-320 993.5,-314 999.5,-314 999.5,-314 1086.5,-314 1086.5,-314 1092.5,-314 1098.5,-320 1098.5,-326 1098.5,-326 1098.5,-338 1098.5,-338 1098.5,-344 1092.5,-350 1086.5,-350"/>
<text text-anchor="middle" x="1043" y="-328.3" font-family="Arial" font-size="14.00" fill="#000000">mem_side_port</text>
</g>
<!-- system_comm_monitor_dma_devices1_mem_side_port -->
<g id="node11" class="node">
<title>system_comm_monitor_dma_devices1_mem_side_port</title>
<path fill="#94918b" stroke="#000000" d="M832.5,-350C832.5,-350 745.5,-350 745.5,-350 739.5,-350 733.5,-344 733.5,-338 733.5,-338 733.5,-326 733.5,-326 733.5,-320 739.5,-314 745.5,-314 745.5,-314 832.5,-314 832.5,-314 838.5,-314 844.5,-320 844.5,-326 844.5,-326 844.5,-338 844.5,-338 844.5,-344 838.5,-350 832.5,-350"/>
<text text-anchor="middle" x="789" y="-328.3" font-family="Arial" font-size="14.00" fill="#000000">mem_side_port</text>
</g>
<!-- system_comm_monitor_dma_devices2_mem_side_port -->
<g id="node13" class="node">
<title>system_comm_monitor_dma_devices2_mem_side_port</title>
<path fill="#94918b" stroke="#000000" d="M504.5,-350C504.5,-350 417.5,-350 417.5,-350 411.5,-350 405.5,-344 405.5,-338 405.5,-338 405.5,-326 405.5,-326 405.5,-320 411.5,-314 417.5,-314 417.5,-314 504.5,-314 504.5,-314 510.5,-314 516.5,-320 516.5,-326 516.5,-326 516.5,-338 516.5,-338 516.5,-344 510.5,-350 504.5,-350"/>
<text text-anchor="middle" x="461" y="-328.3" font-family="Arial" font-size="14.00" fill="#000000">mem_side_port</text>
</g>
<!-- system_comm_monitor_dma_devices3_mem_side_port -->
<g id="node15" class="node">
<title>system_comm_monitor_dma_devices3_mem_side_port</title>
<path fill="#94918b" stroke="#000000" d="M250.5,-350C250.5,-350 163.5,-350 163.5,-350 157.5,-350 151.5,-344 151.5,-338 151.5,-338 151.5,-326 151.5,-326 151.5,-320 157.5,-314 163.5,-314 163.5,-314 250.5,-314 250.5,-314 256.5,-314 262.5,-320 262.5,-326 262.5,-326 262.5,-338 262.5,-338 262.5,-344 256.5,-350 250.5,-350"/>
<text text-anchor="middle" x="207" y="-328.3" font-family="Arial" font-size="14.00" fill="#000000">mem_side_port</text>
</g>
<!-- system_l2bus_cpu_side_ports -->
<g id="node17" class="node">
<title>system_l2bus_cpu_side_ports</title>
<path fill="#586070" stroke="#000000" d="M1115,-220C1115,-220 1031,-220 1031,-220 1025,-220 1019,-214 1019,-208 1019,-208 1019,-196 1019,-196 1019,-190 1025,-184 1031,-184 1031,-184 1115,-184 1115,-184 1121,-184 1127,-190 1127,-196 1127,-196 1127,-208 1127,-208 1127,-214 1121,-220 1115,-220"/>
<text text-anchor="middle" x="1073" y="-198.3" font-family="Arial" font-size="14.00" fill="#000000">cpu_side_ports</text>
</g>
<!-- system_l2bus_cpu_side_ports&#45;&gt;system_cpu_icache_mem_side -->
<g id="edge5" class="edge">
<title>system_l2bus_cpu_side_ports&#45;&gt;system_cpu_icache_mem_side</title>
<path fill="none" stroke="black" d="M1082.54,-174.44C1092.87,-145.67 1109.05,-100.64 1117.83,-76.19"/>
<polygon fill="black" stroke="black" points="1079.24,-173.28 1079.15,-183.87 1085.83,-175.64 1079.24,-173.28"/>
</g>
<!-- system_l2bus_cpu_side_ports&#45;&gt;system_cpu_dcache_mem_side -->
<g id="edge6" class="edge">
<title>system_l2bus_cpu_side_ports&#45;&gt;system_cpu_dcache_mem_side</title>
<path fill="none" stroke="black" d="M1063.09,-174.44C1052.35,-145.67 1035.54,-100.64 1026.42,-76.19"/>
<polygon fill="black" stroke="black" points="1059.83,-175.73 1066.61,-183.87 1066.39,-173.28 1059.83,-175.73"/>
</g>
<!-- system_l2bus_mem_side_ports -->
<g id="node18" class="node">
<title>system_l2bus_mem_side_ports</title>
<path fill="#586070" stroke="#000000" d="M989,-220C989,-220 895,-220 895,-220 889,-220 883,-214 883,-208 883,-208 883,-196 883,-196 883,-190 889,-184 895,-184 895,-184 989,-184 989,-184 995,-184 1001,-190 1001,-196 1001,-196 1001,-208 1001,-208 1001,-214 995,-220 989,-220"/>
<text text-anchor="middle" x="942" y="-198.3" font-family="Arial" font-size="14.00" fill="#000000">mem_side_ports</text>
</g>
<!-- system_l2bus_mem_side_ports&#45;&gt;system_cpu_l2cache_cpu_side -->
<g id="edge7" class="edge">
<title>system_l2bus_mem_side_ports&#45;&gt;system_cpu_l2cache_cpu_side</title>
<path fill="none" stroke="black" d="M939.35,-183.87C935.6,-159.67 928.71,-115.21 924.24,-86.39"/>
<polygon fill="black" stroke="black" points="927.65,-85.54 922.66,-76.19 920.74,-86.61 927.65,-85.54"/>
</g>
<!-- system_l3bus_cpu_side_ports -->
<g id="node19" class="node">
<title>system_l3bus_cpu_side_ports</title>
<path fill="#586070" stroke="#000000" d="M847,-220C847,-220 763,-220 763,-220 757,-220 751,-214 751,-208 751,-208 751,-196 751,-196 751,-190 757,-184 763,-184 763,-184 847,-184 847,-184 853,-184 859,-190 859,-196 859,-196 859,-208 859,-208 859,-214 853,-220 847,-220"/>
<text text-anchor="middle" x="805" y="-198.3" font-family="Arial" font-size="14.00" fill="#000000">cpu_side_ports</text>
</g>
<!-- system_l3bus_cpu_side_ports&#45;&gt;system_cpu_l2cache_mem_side -->
<g id="edge8" class="edge">
<title>system_l3bus_cpu_side_ports&#45;&gt;system_cpu_l2cache_mem_side</title>
<path fill="none" stroke="black" d="M809.04,-173.68C813.3,-144.89 819.87,-100.42 823.46,-76.19"/>
<polygon fill="black" stroke="black" points="805.53,-173.47 807.53,-183.87 812.46,-174.49 805.53,-173.47"/>
</g>
<!-- system_l3bus_mem_side_ports -->
<g id="node20" class="node">
<title>system_l3bus_mem_side_ports</title>
<path fill="#586070" stroke="#000000" d="M721,-220C721,-220 627,-220 627,-220 621,-220 615,-214 615,-208 615,-208 615,-196 615,-196 615,-190 621,-184 627,-184 627,-184 721,-184 721,-184 727,-184 733,-190 733,-196 733,-196 733,-208 733,-208 733,-214 727,-220 721,-220"/>
<text text-anchor="middle" x="674" y="-198.3" font-family="Arial" font-size="14.00" fill="#000000">mem_side_ports</text>
</g>
<!-- system_l3cache_cpu_side -->
<g id="node21" class="node">
<title>system_l3cache_cpu_side</title>
<path fill="#94918b" stroke="#000000" d="M697.5,-350C697.5,-350 650.5,-350 650.5,-350 644.5,-350 638.5,-344 638.5,-338 638.5,-338 638.5,-326 638.5,-326 638.5,-320 644.5,-314 650.5,-314 650.5,-314 697.5,-314 697.5,-314 703.5,-314 709.5,-320 709.5,-326 709.5,-326 709.5,-338 709.5,-338 709.5,-344 703.5,-350 697.5,-350"/>
<text text-anchor="middle" x="674" y="-328.3" font-family="Arial" font-size="14.00" fill="#000000">cpu_side</text>
</g>
<!-- system_l3cache_cpu_side&#45;&gt;system_l3bus_mem_side_ports -->
<g id="edge9" class="edge">
<title>system_l3cache_cpu_side&#45;&gt;system_l3bus_mem_side_ports</title>
<path fill="none" stroke="black" d="M674,-303.72C674,-278.52 674,-241.84 674,-220.4"/>
<polygon fill="black" stroke="black" points="670.5,-303.74 674,-313.74 677.5,-303.74 670.5,-303.74"/>
</g>
<!-- system_l3cache_mem_side -->
<g id="node22" class="node">
<title>system_l3cache_mem_side</title>
<path fill="#94918b" stroke="#000000" d="M608,-350C608,-350 552,-350 552,-350 546,-350 540,-344 540,-338 540,-338 540,-326 540,-326 540,-320 546,-314 552,-314 552,-314 608,-314 608,-314 614,-314 620,-320 620,-326 620,-326 620,-338 620,-338 620,-344 614,-350 608,-350"/>
<text text-anchor="middle" x="580" y="-328.3" font-family="Arial" font-size="14.00" fill="#000000">mem_side</text>
</g>
<!-- system_membus_cpu_side_ports -->
<g id="node23" class="node">
<title>system_membus_cpu_side_ports</title>
<path fill="#586070" stroke="#000000" d="M622,-480C622,-480 538,-480 538,-480 532,-480 526,-474 526,-468 526,-468 526,-456 526,-456 526,-450 532,-444 538,-444 538,-444 622,-444 622,-444 628,-444 634,-450 634,-456 634,-456 634,-468 634,-468 634,-474 628,-480 622,-480"/>
<text text-anchor="middle" x="580" y="-458.3" font-family="Arial" font-size="14.00" fill="#000000">cpu_side_ports</text>
</g>
<!-- system_membus_cpu_side_ports&#45;&gt;system_comm_monitor_dma_devices0_mem_side_port -->
<g id="edge11" class="edge">
<title>system_membus_cpu_side_ports&#45;&gt;system_comm_monitor_dma_devices0_mem_side_port</title>
<path fill="none" stroke="black" d="M644.26,-455.05C741,-445.32 918.83,-424.23 976,-396 997.9,-385.18 1017.56,-364.79 1029.83,-350.14"/>
<polygon fill="black" stroke="black" points="643.9,-451.56 634.3,-456.04 644.6,-458.53 643.9,-451.56"/>
</g>
<!-- system_membus_cpu_side_ports&#45;&gt;system_comm_monitor_dma_devices1_mem_side_port -->
<g id="edge12" class="edge">
<title>system_membus_cpu_side_ports&#45;&gt;system_comm_monitor_dma_devices1_mem_side_port</title>
<path fill="none" stroke="black" d="M636.41,-440.16C663.41,-428.96 695.53,-413.8 722,-396 741.61,-382.81 760.94,-363.82 773.76,-350.14"/>
<polygon fill="black" stroke="black" points="635.04,-436.94 627.1,-443.95 637.68,-443.42 635.04,-436.94"/>
</g>
<!-- system_membus_cpu_side_ports&#45;&gt;system_comm_monitor_dma_devices2_mem_side_port -->
<g id="edge13" class="edge">
<title>system_membus_cpu_side_ports&#45;&gt;system_comm_monitor_dma_devices2_mem_side_port</title>
<path fill="none" stroke="black" d="M557.1,-436.37C533.66,-411.16 497.82,-372.6 477.17,-350.4"/>
<polygon fill="black" stroke="black" points="554.58,-438.8 563.95,-443.74 559.71,-434.03 554.58,-438.8"/>
</g>
<!-- system_membus_cpu_side_ports&#45;&gt;system_comm_monitor_dma_devices3_mem_side_port -->
<g id="edge14" class="edge">
<title>system_membus_cpu_side_ports&#45;&gt;system_comm_monitor_dma_devices3_mem_side_port</title>
<path fill="none" stroke="black" d="M515.87,-451.55C438.99,-439.5 315.33,-417.62 274,-396 252.5,-384.75 232.91,-364.65 220.54,-350.17"/>
<polygon fill="black" stroke="black" points="515.51,-455.03 525.93,-453.11 516.58,-448.12 515.51,-455.03"/>
</g>
<!-- system_membus_cpu_side_ports&#45;&gt;system_l3cache_mem_side -->
<g id="edge10" class="edge">
<title>system_membus_cpu_side_ports&#45;&gt;system_l3cache_mem_side</title>
<path fill="none" stroke="black" d="M580,-433.72C580,-408.52 580,-371.84 580,-350.4"/>
<polygon fill="black" stroke="black" points="576.5,-433.74 580,-443.74 583.5,-433.74 576.5,-433.74"/>
</g>
</g>
</svg>
