<?xml version="1.0" encoding="UTF-8" standalone="no"?>
<!DOCTYPE svg PUBLIC "-//W3C//DTD SVG 1.1//EN"
 "http://www.w3.org/Graphics/SVG/1.1/DTD/svg11.dtd">
<!-- Generated by graphviz version 2.43.0 (0)
 -->
<!-- Title: G Pages: 1 -->
<svg width="480pt" height="448pt"
 viewBox="0.00 0.00 480.19 448.21" xmlns="http://www.w3.org/2000/svg" xmlns:xlink="http://www.w3.org/1999/xlink">
<g id="graph0" class="graph" transform="scale(1 1) rotate(0) translate(4 444.21)">
<title>G</title>
<polygon fill="white" stroke="transparent" points="-4,4 -4,-444.21 476.19,-444.21 476.19,4 -4,4"/>
<!-- system.ruby.network.routers0 -->
<g id="node1" class="node">
<title>system.ruby.network.routers0</title>
<path fill="#cce6fc" stroke="#000000" d="M204.89,-76.71C204.89,-76.71 234.89,-76.71 234.89,-76.71 240.89,-76.71 246.89,-82.71 246.89,-88.71 246.89,-88.71 246.89,-100.71 246.89,-100.71 246.89,-106.71 240.89,-112.71 234.89,-112.71 234.89,-112.71 204.89,-112.71 204.89,-112.71 198.89,-112.71 192.89,-106.71 192.89,-100.71 192.89,-100.71 192.89,-88.71 192.89,-88.71 192.89,-82.71 198.89,-76.71 204.89,-76.71"/>
<text text-anchor="middle" x="219.89" y="-91.01" font-family="Arial" font-size="14.00" fill="#000000">R 0</text>
</g>
<!-- system.ruby.network.routers2 -->
<g id="node3" class="node">
<title>system.ruby.network.routers2</title>
<path fill="#cce6fc" stroke="#000000" d="M249.28,-162.67C249.28,-162.67 279.28,-162.67 279.28,-162.67 285.28,-162.67 291.28,-168.67 291.28,-174.67 291.28,-174.67 291.28,-186.67 291.28,-186.67 291.28,-192.67 285.28,-198.67 279.28,-198.67 279.28,-198.67 249.28,-198.67 249.28,-198.67 243.28,-198.67 237.28,-192.67 237.28,-186.67 237.28,-186.67 237.28,-174.67 237.28,-174.67 237.28,-168.67 243.28,-162.67 249.28,-162.67"/>
<text text-anchor="middle" x="264.28" y="-176.97" font-family="Arial" font-size="14.00" fill="#000000">R 2</text>
</g>
<!-- system.ruby.network.routers0&#45;&#45;system.ruby.network.routers2 -->
<g id="edge1" class="edge">
<title>system.ruby.network.routers0&#45;&#45;system.ruby.network.routers2</title>
<path fill="none" stroke="#042d50" d="M229.31,-112.94C235.37,-124.67 243.36,-140.15 250.17,-153.34"/>
<polygon fill="#042d50" stroke="#042d50" points="247.18,-155.18 254.88,-162.46 253.4,-151.97 247.18,-155.18"/>
</g>
<!-- system.ruby.network.routers1 -->
<g id="node2" class="node">
<title>system.ruby.network.routers1</title>
<path fill="#cce6fc" stroke="#000000" d="M344.53,-142.17C344.53,-142.17 374.53,-142.17 374.53,-142.17 380.53,-142.17 386.53,-148.17 386.53,-154.17 386.53,-154.17 386.53,-166.17 386.53,-166.17 386.53,-172.17 380.53,-178.17 374.53,-178.17 374.53,-178.17 344.53,-178.17 344.53,-178.17 338.53,-178.17 332.53,-172.17 332.53,-166.17 332.53,-166.17 332.53,-154.17 332.53,-154.17 332.53,-148.17 338.53,-142.17 344.53,-142.17"/>
<text text-anchor="middle" x="359.53" y="-156.47" font-family="Arial" font-size="14.00" fill="#000000">R 1</text>
</g>
<!-- system.ruby.network.routers1&#45;&#45;system.ruby.network.routers2 -->
<g id="edge2" class="edge">
<title>system.ruby.network.routers1&#45;&#45;system.ruby.network.routers2</title>
<path fill="none" stroke="#042d50" d="M332.49,-165.99C322.84,-168.07 311.79,-170.45 301.43,-172.67"/>
<polygon fill="#042d50" stroke="#042d50" points="300.43,-169.31 291.39,-174.84 301.9,-176.15 300.43,-169.31"/>
</g>
<!-- system.ruby.network.routers3 -->
<g id="node4" class="node">
<title>system.ruby.network.routers3</title>
<path fill="#cce6fc" stroke="#000000" d="M209.46,-226.26C209.46,-226.26 239.46,-226.26 239.46,-226.26 245.46,-226.26 251.46,-232.26 251.46,-238.26 251.46,-238.26 251.46,-250.26 251.46,-250.26 251.46,-256.26 245.46,-262.26 239.46,-262.26 239.46,-262.26 209.46,-262.26 209.46,-262.26 203.46,-262.26 197.46,-256.26 197.46,-250.26 197.46,-250.26 197.46,-238.26 197.46,-238.26 197.46,-232.26 203.46,-226.26 209.46,-226.26"/>
<text text-anchor="middle" x="224.46" y="-240.56" font-family="Arial" font-size="14.00" fill="#000000">R 3</text>
</g>
<!-- system.ruby.network.routers2&#45;&#45;system.ruby.network.routers3 -->
<g id="edge3" class="edge">
<title>system.ruby.network.routers2&#45;&#45;system.ruby.network.routers3</title>
<path fill="none" stroke="#042d50" d="M252.97,-198.72C249.39,-204.44 245.34,-210.9 241.45,-217.12"/>
<polygon fill="#042d50" stroke="#042d50" points="238.27,-215.61 235.93,-225.94 244.2,-219.32 238.27,-215.61"/>
</g>
<!-- system.ruby.network.routers4 -->
<g id="node5" class="node">
<title>system.ruby.network.routers4</title>
<path fill="#cce6fc" stroke="#000000" d="M207.13,-257.23C207.13,-257.23 237.13,-257.23 237.13,-257.23 243.13,-257.23 249.13,-263.23 249.13,-269.23 249.13,-269.23 249.13,-281.23 249.13,-281.23 249.13,-287.23 243.13,-293.23 237.13,-293.23 237.13,-293.23 207.13,-293.23 207.13,-293.23 201.13,-293.23 195.13,-287.23 195.13,-281.23 195.13,-281.23 195.13,-269.23 195.13,-269.23 195.13,-263.23 201.13,-257.23 207.13,-257.23"/>
<text text-anchor="middle" x="222.13" y="-271.53" font-family="Arial" font-size="14.00" fill="#000000">R 4</text>
</g>
<!-- system.ruby.network.routers2&#45;&#45;system.ruby.network.routers4 -->
<g id="edge4" class="edge">
<title>system.ruby.network.routers2&#45;&#45;system.ruby.network.routers4</title>
<path fill="none" stroke="#042d50" d="M256.15,-198.9C249.97,-212.77 241.37,-232.07 234.36,-247.8"/>
<polygon fill="#042d50" stroke="#042d50" points="231.11,-246.49 230.23,-257.05 237.5,-249.34 231.11,-246.49"/>
</g>
<!-- system.ruby.network.routers5 -->
<g id="node6" class="node">
<title>system.ruby.network.routers5</title>
<path fill="#cce6fc" stroke="#000000" d="M250.17,-229.48C250.17,-229.48 280.17,-229.48 280.17,-229.48 286.17,-229.48 292.17,-235.48 292.17,-241.48 292.17,-241.48 292.17,-253.48 292.17,-253.48 292.17,-259.48 286.17,-265.48 280.17,-265.48 280.17,-265.48 250.17,-265.48 250.17,-265.48 244.17,-265.48 238.17,-259.48 238.17,-253.48 238.17,-253.48 238.17,-241.48 238.17,-241.48 238.17,-235.48 244.17,-229.48 250.17,-229.48"/>
<text text-anchor="middle" x="265.17" y="-243.78" font-family="Arial" font-size="14.00" fill="#000000">R 5</text>
</g>
<!-- system.ruby.network.routers2&#45;&#45;system.ruby.network.routers5 -->
<g id="edge5" class="edge">
<title>system.ruby.network.routers2&#45;&#45;system.ruby.network.routers5</title>
<path fill="none" stroke="#042d50" d="M264.52,-198.92C264.6,-205.11 264.7,-212.18 264.79,-218.97"/>
<polygon fill="#042d50" stroke="#042d50" points="261.29,-219.29 264.92,-229.25 268.29,-219.2 261.29,-219.29"/>
</g>
<!-- system.ruby.network.routers6 -->
<g id="node7" class="node">
<title>system.ruby.network.routers6</title>
<path fill="#cce6fc" stroke="#000000" d="M147.44,-219.96C147.44,-219.96 177.44,-219.96 177.44,-219.96 183.44,-219.96 189.44,-225.96 189.44,-231.96 189.44,-231.96 189.44,-243.96 189.44,-243.96 189.44,-249.96 183.44,-255.96 177.44,-255.96 177.44,-255.96 147.44,-255.96 147.44,-255.96 141.44,-255.96 135.44,-249.96 135.44,-243.96 135.44,-243.96 135.44,-231.96 135.44,-231.96 135.44,-225.96 141.44,-219.96 147.44,-219.96"/>
<text text-anchor="middle" x="162.44" y="-234.26" font-family="Arial" font-size="14.00" fill="#000000">R 6</text>
</g>
<!-- system.ruby.network.routers3&#45;&#45;system.ruby.network.routers6 -->
<g id="edge18" class="edge">
<title>system.ruby.network.routers3&#45;&#45;system.ruby.network.routers6</title>
<path fill="none" stroke="#042d50" d="M197.39,-234.76C197.23,-234.74 197.07,-234.72 196.91,-234.7"/>
<polygon fill="#042d50" stroke="#042d50" points="199.92,-231.47 189.63,-234 199.25,-238.44 199.92,-231.47"/>
</g>
<!-- system.ruby.network.routers7 -->
<g id="node8" class="node">
<title>system.ruby.network.routers7</title>
<path fill="#cce6fc" stroke="#000000" d="M262.68,-296.74C262.68,-296.74 292.68,-296.74 292.68,-296.74 298.68,-296.74 304.68,-302.74 304.68,-308.74 304.68,-308.74 304.68,-320.74 304.68,-320.74 304.68,-326.74 298.68,-332.74 292.68,-332.74 292.68,-332.74 262.68,-332.74 262.68,-332.74 256.68,-332.74 250.68,-326.74 250.68,-320.74 250.68,-320.74 250.68,-308.74 250.68,-308.74 250.68,-302.74 256.68,-296.74 262.68,-296.74"/>
<text text-anchor="middle" x="277.68" y="-311.04" font-family="Arial" font-size="14.00" fill="#000000">R 7</text>
</g>
<!-- system.ruby.network.routers3&#45;&#45;system.ruby.network.routers7 -->
<g id="edge19" class="edge">
<title>system.ruby.network.routers3&#45;&#45;system.ruby.network.routers7</title>
<path fill="none" stroke="#042d50" d="M231.24,-262.6C236.11,-270.57 242.79,-280.01 249.61,-288.66"/>
<polygon fill="#042d50" stroke="#042d50" points="247.09,-291.12 256.12,-296.65 252.52,-286.69 247.09,-291.12"/>
</g>
<!-- system.ruby.network.routers8 -->
<g id="node9" class="node">
<title>system.ruby.network.routers8</title>
<path fill="#cce6fc" stroke="#000000" d="M279.81,-279.48C279.81,-279.48 309.81,-279.48 309.81,-279.48 315.81,-279.48 321.81,-285.48 321.81,-291.48 321.81,-291.48 321.81,-303.48 321.81,-303.48 321.81,-309.48 315.81,-315.48 309.81,-315.48 309.81,-315.48 279.81,-315.48 279.81,-315.48 273.81,-315.48 267.81,-309.48 267.81,-303.48 267.81,-303.48 267.81,-291.48 267.81,-291.48 267.81,-285.48 273.81,-279.48 279.81,-279.48"/>
<text text-anchor="middle" x="294.81" y="-293.78" font-family="Arial" font-size="14.00" fill="#000000">R 8</text>
</g>
<!-- system.ruby.network.routers3&#45;&#45;system.ruby.network.routers8 -->
<g id="edge20" class="edge">
<title>system.ruby.network.routers3&#45;&#45;system.ruby.network.routers8</title>
<path fill="none" stroke="#042d50" d="M238.62,-262.43C244.61,-267.77 251.86,-273.57 259.14,-278.92"/>
<polygon fill="#042d50" stroke="#042d50" points="257.44,-282 267.62,-284.93 261.48,-276.29 257.44,-282"/>
</g>
<!-- system.ruby.network.routers4&#45;&#45;system.ruby.network.routers6 -->
<g id="edge21" class="edge">
<title>system.ruby.network.routers4&#45;&#45;system.ruby.network.routers6</title>
<path fill="none" stroke="#042d50" d="M205.33,-257.16C203.22,-255.66 201,-254.16 198.73,-252.69"/>
<polygon fill="#042d50" stroke="#042d50" points="200.21,-249.49 189.85,-247.26 196.56,-255.46 200.21,-249.49"/>
</g>
<!-- system.ruby.network.routers4&#45;&#45;system.ruby.network.routers7 -->
<g id="edge22" class="edge">
<title>system.ruby.network.routers4&#45;&#45;system.ruby.network.routers7</title>
<path fill="none" stroke="#042d50" d="M236.62,-293.36C238.34,-294.76 240.14,-296.17 241.99,-297.56"/>
<polygon fill="#042d50" stroke="#042d50" points="240.14,-300.53 250.31,-303.47 244.19,-294.83 240.14,-300.53"/>
</g>
<!-- system.ruby.network.routers4&#45;&#45;system.ruby.network.routers8 -->
<g id="edge23" class="edge">
<title>system.ruby.network.routers4&#45;&#45;system.ruby.network.routers8</title>
<path fill="none" stroke="#042d50" d="M249.33,-290.49C252.12,-291.44 254.98,-292.36 257.85,-293.22"/>
<polygon fill="#042d50" stroke="#042d50" points="256.95,-296.6 267.52,-295.89 258.81,-289.85 256.95,-296.6"/>
</g>
<!-- system.ruby.network.routers5&#45;&#45;system.ruby.network.routers6 -->
<g id="edge24" class="edge">
<title>system.ruby.network.routers5&#45;&#45;system.ruby.network.routers6</title>
<path fill="none" stroke="#042d50" d="M237.93,-238.86C226.3,-237.05 212.53,-235.63 199.96,-234.9"/>
<polygon fill="#042d50" stroke="#042d50" points="199.89,-231.4 189.75,-234.46 199.59,-238.39 199.89,-231.4"/>
</g>
<!-- system.ruby.network.routers5&#45;&#45;system.ruby.network.routers7 -->
<g id="edge25" class="edge">
<title>system.ruby.network.routers5&#45;&#45;system.ruby.network.routers7</title>
<path fill="none" stroke="#042d50" d="M262.47,-265.54C262.99,-271.94 264.11,-279.3 265.57,-286.34"/>
<polygon fill="#042d50" stroke="#042d50" points="262.22,-287.37 267.94,-296.29 269.03,-285.75 262.22,-287.37"/>
</g>
<!-- system.ruby.network.routers5&#45;&#45;system.ruby.network.routers8 -->
<g id="edge26" class="edge">
<title>system.ruby.network.routers5&#45;&#45;system.ruby.network.routers8</title>
<path fill="none" stroke="#042d50" d="M268.69,-265.67C269.42,-267.21 270.22,-268.79 271.07,-270.38"/>
<polygon fill="#042d50" stroke="#042d50" points="268.28,-272.55 276.33,-279.43 274.33,-269.03 268.28,-272.55"/>
</g>
<!-- system.ruby.network.routers6&#45;&#45;system.ruby.network.routers3 -->
<g id="edge6" class="edge">
<title>system.ruby.network.routers6&#45;&#45;system.ruby.network.routers3</title>
<path fill="none" stroke="#042d50" d="M189.5,-247.46C189.66,-247.48 189.83,-247.5 189.99,-247.52"/>
<polygon fill="#042d50" stroke="#042d50" points="186.98,-250.74 197.27,-248.22 187.65,-243.77 186.98,-250.74"/>
</g>
<!-- system.ruby.network.routers6&#45;&#45;system.ruby.network.routers4 -->
<g id="edge7" class="edge">
<title>system.ruby.network.routers6&#45;&#45;system.ruby.network.routers4</title>
<path fill="none" stroke="#042d50" d="M179.24,-256.03C181.35,-257.52 183.57,-259.02 185.84,-260.49"/>
<polygon fill="#042d50" stroke="#042d50" points="184.36,-263.69 194.72,-265.93 188.02,-257.72 184.36,-263.69"/>
</g>
<!-- system.ruby.network.routers6&#45;&#45;system.ruby.network.routers5 -->
<g id="edge8" class="edge">
<title>system.ruby.network.routers6&#45;&#45;system.ruby.network.routers5</title>
<path fill="none" stroke="#042d50" d="M189.68,-246.58C201.31,-248.39 215.08,-249.81 227.65,-250.54"/>
<polygon fill="#042d50" stroke="#042d50" points="227.71,-254.04 237.85,-250.98 228.02,-247.05 227.71,-254.04"/>
</g>
<!-- system.ruby.network.routers7&#45;&#45;system.ruby.network.routers3 -->
<g id="edge9" class="edge">
<title>system.ruby.network.routers7&#45;&#45;system.ruby.network.routers3</title>
<path fill="none" stroke="#042d50" d="M270.89,-296.4C266.03,-288.43 259.34,-278.99 252.52,-270.34"/>
<polygon fill="#042d50" stroke="#042d50" points="255.04,-267.88 246.01,-262.35 249.62,-272.31 255.04,-267.88"/>
</g>
<!-- system.ruby.network.routers7&#45;&#45;system.ruby.network.routers4 -->
<g id="edge10" class="edge">
<title>system.ruby.network.routers7&#45;&#45;system.ruby.network.routers4</title>
<path fill="none" stroke="#042d50" d="M263.19,-296.61C261.47,-295.21 259.67,-293.8 257.82,-292.41"/>
<polygon fill="#042d50" stroke="#042d50" points="259.67,-289.43 249.49,-286.5 255.62,-295.14 259.67,-289.43"/>
</g>
<!-- system.ruby.network.routers7&#45;&#45;system.ruby.network.routers5 -->
<g id="edge11" class="edge">
<title>system.ruby.network.routers7&#45;&#45;system.ruby.network.routers5</title>
<path fill="none" stroke="#042d50" d="M280.37,-296.68C279.85,-290.29 278.74,-282.93 277.27,-275.89"/>
<polygon fill="#042d50" stroke="#042d50" points="280.62,-274.86 274.9,-265.94 273.81,-276.48 280.62,-274.86"/>
</g>
<!-- system.ruby.network.routers8&#45;&#45;system.ruby.network.routers3 -->
<g id="edge12" class="edge">
<title>system.ruby.network.routers8&#45;&#45;system.ruby.network.routers3</title>
<path fill="none" stroke="#042d50" d="M280.65,-279.31C274.66,-273.97 267.41,-268.17 260.13,-262.82"/>
<polygon fill="#042d50" stroke="#042d50" points="261.83,-259.74 251.65,-256.81 257.79,-265.45 261.83,-259.74"/>
</g>
<!-- system.ruby.network.routers8&#45;&#45;system.ruby.network.routers4 -->
<g id="edge13" class="edge">
<title>system.ruby.network.routers8&#45;&#45;system.ruby.network.routers4</title>
<path fill="none" stroke="#042d50" d="M267.61,-282.22C264.83,-281.27 261.96,-280.35 259.1,-279.49"/>
<polygon fill="#042d50" stroke="#042d50" points="260,-276.11 249.43,-276.82 258.13,-282.86 260,-276.11"/>
</g>
<!-- system.ruby.network.routers8&#45;&#45;system.ruby.network.routers5 -->
<g id="edge14" class="edge">
<title>system.ruby.network.routers8&#45;&#45;system.ruby.network.routers5</title>
<path fill="none" stroke="#042d50" d="M291.29,-279.3C290.56,-277.75 289.76,-276.17 288.91,-274.58"/>
<polygon fill="#042d50" stroke="#042d50" points="291.7,-272.41 283.65,-265.53 285.65,-275.94 291.7,-272.41"/>
</g>
<!-- system.ruby.network.routers9 -->
<g id="node10" class="node">
<title>system.ruby.network.routers9</title>
<path fill="#cce6fc" stroke="#000000" d="M208.58,-313.56C208.58,-313.56 238.58,-313.56 238.58,-313.56 244.58,-313.56 250.58,-319.56 250.58,-325.56 250.58,-325.56 250.58,-337.56 250.58,-337.56 250.58,-343.56 244.58,-349.56 238.58,-349.56 238.58,-349.56 208.58,-349.56 208.58,-349.56 202.58,-349.56 196.58,-343.56 196.58,-337.56 196.58,-337.56 196.58,-325.56 196.58,-325.56 196.58,-319.56 202.58,-313.56 208.58,-313.56"/>
<text text-anchor="middle" x="223.58" y="-327.86" font-family="Arial" font-size="14.00" fill="#000000">R 9</text>
</g>
<!-- system.ruby.network.routers9&#45;&#45;system.ruby.network.routers3 -->
<g id="edge15" class="edge">
<title>system.ruby.network.routers9&#45;&#45;system.ruby.network.routers3</title>
<path fill="none" stroke="#042d50" d="M223.76,-313.47C223.88,-301.65 224.04,-285.96 224.17,-272.51"/>
<polygon fill="#042d50" stroke="#042d50" points="227.67,-272.36 224.27,-262.32 220.67,-272.29 227.67,-272.36"/>
</g>
<!-- system.ruby.network.routers9&#45;&#45;system.ruby.network.routers4 -->
<g id="edge16" class="edge">
<title>system.ruby.network.routers9&#45;&#45;system.ruby.network.routers4</title>
<path fill="none" stroke="#042d50" d="M223.12,-313.43C223.03,-310.21 222.95,-306.79 222.86,-303.37"/>
<polygon fill="#042d50" stroke="#042d50" points="226.35,-303.23 222.6,-293.33 219.36,-303.41 226.35,-303.23"/>
</g>
<!-- system.ruby.network.routers9&#45;&#45;system.ruby.network.routers5 -->
<g id="edge17" class="edge">
<title>system.ruby.network.routers9&#45;&#45;system.ruby.network.routers5</title>
<path fill="none" stroke="#042d50" d="M232.61,-313.32C238.16,-302.08 245.4,-287.46 251.63,-274.85"/>
<polygon fill="#042d50" stroke="#042d50" points="254.86,-276.21 256.16,-265.69 248.59,-273.1 254.86,-276.21"/>
</g>
<!-- system.cpu0.l1i -->
<g id="node11" class="node">
<title>system.cpu0.l1i</title>
<path fill="#e5bcd0" stroke="#000000" d="M173.27,-0.64C173.27,-0.64 212.27,-0.64 212.27,-0.64 218.27,-0.64 224.27,-6.64 224.27,-12.64 224.27,-12.64 224.27,-24.64 224.27,-24.64 224.27,-30.64 218.27,-36.64 212.27,-36.64 212.27,-36.64 173.27,-36.64 173.27,-36.64 167.27,-36.64 161.27,-30.64 161.27,-24.64 161.27,-24.64 161.27,-12.64 161.27,-12.64 161.27,-6.64 167.27,-0.64 173.27,-0.64"/>
<text text-anchor="middle" x="192.77" y="-14.94" font-family="Arial" font-size="14.00" fill="#000000">cpu0.l1i</text>
</g>
<!-- system.cpu0.l1i&#45;&#45;system.ruby.network.routers0 -->
<g id="edge27" class="edge">
<title>system.cpu0.l1i&#45;&#45;system.ruby.network.routers0</title>
<path fill="none" stroke="#381526" d="M202.63,-46.28C205.04,-53.05 207.63,-60.3 210.04,-67.07"/>
<polygon fill="#381526" stroke="#381526" points="205.85,-44.91 199.2,-36.66 199.26,-47.26 205.85,-44.91"/>
<polygon fill="#381526" stroke="#381526" points="206.76,-68.3 213.42,-76.54 213.36,-65.95 206.76,-68.3"/>
</g>
<!-- system.cpu0.l1d -->
<g id="node12" class="node">
<title>system.cpu0.l1d</title>
<path fill="#e5bcd0" stroke="#000000" d="M118.73,-39.59C118.73,-39.59 162.73,-39.59 162.73,-39.59 168.73,-39.59 174.73,-45.59 174.73,-51.59 174.73,-51.59 174.73,-63.59 174.73,-63.59 174.73,-69.59 168.73,-75.59 162.73,-75.59 162.73,-75.59 118.73,-75.59 118.73,-75.59 112.73,-75.59 106.73,-69.59 106.73,-63.59 106.73,-63.59 106.73,-51.59 106.73,-51.59 106.73,-45.59 112.73,-39.59 118.73,-39.59"/>
<text text-anchor="middle" x="140.73" y="-53.89" font-family="Arial" font-size="14.00" fill="#000000">cpu0.l1d</text>
</g>
<!-- system.cpu0.l1d&#45;&#45;system.ruby.network.routers0 -->
<g id="edge28" class="edge">
<title>system.cpu0.l1d&#45;&#45;system.ruby.network.routers0</title>
<path fill="none" stroke="#381526" d="M183.87,-77.82C183.97,-77.86 184.06,-77.91 184.16,-77.95"/>
<polygon fill="#381526" stroke="#381526" points="185.3,-74.62 174.76,-73.54 182.33,-80.96 185.3,-74.62"/>
<polygon fill="#381526" stroke="#381526" points="182.28,-80.93 192.82,-82.01 185.25,-74.6 182.28,-80.93"/>
</g>
<!-- system.cpu0.l2 -->
<g id="node13" class="node">
<title>system.cpu0.l2</title>
<path fill="#e5bcd0" stroke="#000000" d="M242.16,-0.5C242.16,-0.5 278.16,-0.5 278.16,-0.5 284.16,-0.5 290.16,-6.5 290.16,-12.5 290.16,-12.5 290.16,-24.5 290.16,-24.5 290.16,-30.5 284.16,-36.5 278.16,-36.5 278.16,-36.5 242.16,-36.5 242.16,-36.5 236.16,-36.5 230.16,-30.5 230.16,-24.5 230.16,-24.5 230.16,-12.5 230.16,-12.5 230.16,-6.5 236.16,-0.5 242.16,-0.5"/>
<text text-anchor="middle" x="260.16" y="-14.8" font-family="Arial" font-size="14.00" fill="#000000">cpu0.l2</text>
</g>
<!-- system.cpu0.l2&#45;&#45;system.ruby.network.routers0 -->
<g id="edge29" class="edge">
<title>system.cpu0.l2&#45;&#45;system.ruby.network.routers0</title>
<path fill="none" stroke="#381526" d="M245.86,-45.56C242.13,-52.62 238.11,-60.23 234.38,-67.3"/>
<polygon fill="#381526" stroke="#381526" points="249.04,-47.04 250.62,-36.56 242.85,-43.77 249.04,-47.04"/>
<polygon fill="#381526" stroke="#381526" points="231.08,-66.04 229.51,-76.51 237.27,-69.31 231.08,-66.04"/>
</g>
<!-- system.cpu1.l1i -->
<g id="node14" class="node">
<title>system.cpu1.l1i</title>
<path fill="#e5bcd0" stroke="#000000" d="M415.43,-113.31C415.43,-113.31 454.43,-113.31 454.43,-113.31 460.43,-113.31 466.43,-119.31 466.43,-125.31 466.43,-125.31 466.43,-137.31 466.43,-137.31 466.43,-143.31 460.43,-149.31 454.43,-149.31 454.43,-149.31 415.43,-149.31 415.43,-149.31 409.43,-149.31 403.43,-143.31 403.43,-137.31 403.43,-137.31 403.43,-125.31 403.43,-125.31 403.43,-119.31 409.43,-113.31 415.43,-113.31"/>
<text text-anchor="middle" x="434.93" y="-127.61" font-family="Arial" font-size="14.00" fill="#000000">cpu1.l1i</text>
</g>
<!-- system.cpu1.l1i&#45;&#45;system.ruby.network.routers1 -->
<g id="edge30" class="edge">
<title>system.cpu1.l1i&#45;&#45;system.ruby.network.routers1</title>
<path fill="none" stroke="#381526" d="M394.05,-146.96C393.89,-147.02 393.74,-147.08 393.59,-147.14"/>
<polygon fill="#381526" stroke="#381526" points="395.3,-150.23 403.39,-143.39 392.8,-143.69 395.3,-150.23"/>
<polygon fill="#381526" stroke="#381526" points="394.96,-142.87 386.87,-149.71 397.46,-149.4 394.96,-142.87"/>
</g>
<!-- system.cpu1.l1d -->
<g id="node15" class="node">
<title>system.cpu1.l1d</title>
<path fill="#e5bcd0" stroke="#000000" d="M416.19,-177.71C416.19,-177.71 460.19,-177.71 460.19,-177.71 466.19,-177.71 472.19,-183.71 472.19,-189.71 472.19,-189.71 472.19,-201.71 472.19,-201.71 472.19,-207.71 466.19,-213.71 460.19,-213.71 460.19,-213.71 416.19,-213.71 416.19,-213.71 410.19,-213.71 404.19,-207.71 404.19,-201.71 404.19,-201.71 404.19,-189.71 404.19,-189.71 404.19,-183.71 410.19,-177.71 416.19,-177.71"/>
<text text-anchor="middle" x="438.19" y="-192.01" font-family="Arial" font-size="14.00" fill="#000000">cpu1.l1d</text>
</g>
<!-- system.cpu1.l1d&#45;&#45;system.ruby.network.routers1 -->
<g id="edge31" class="edge">
<title>system.cpu1.l1d&#45;&#45;system.ruby.network.routers1</title>
<path fill="none" stroke="#381526" d="M394.63,-176.03C394.54,-175.99 394.46,-175.95 394.37,-175.92"/>
<polygon fill="#381526" stroke="#381526" points="393.36,-179.3 403.92,-180.23 396.24,-172.92 393.36,-179.3"/>
<polygon fill="#381526" stroke="#381526" points="397.15,-173.33 386.6,-172.4 394.27,-179.71 397.15,-173.33"/>
</g>
<!-- system.cpu1.l2 -->
<g id="node16" class="node">
<title>system.cpu1.l2</title>
<path fill="#e5bcd0" stroke="#000000" d="M373.97,-62.08C373.97,-62.08 409.97,-62.08 409.97,-62.08 415.97,-62.08 421.97,-68.08 421.97,-74.08 421.97,-74.08 421.97,-86.08 421.97,-86.08 421.97,-92.08 415.97,-98.08 409.97,-98.08 409.97,-98.08 373.97,-98.08 373.97,-98.08 367.97,-98.08 361.97,-92.08 361.97,-86.08 361.97,-86.08 361.97,-74.08 361.97,-74.08 361.97,-68.08 367.97,-62.08 373.97,-62.08"/>
<text text-anchor="middle" x="391.97" y="-76.38" font-family="Arial" font-size="14.00" fill="#000000">cpu1.l2</text>
</g>
<!-- system.cpu1.l2&#45;&#45;system.ruby.network.routers1 -->
<g id="edge32" class="edge">
<title>system.cpu1.l2&#45;&#45;system.ruby.network.routers1</title>
<path fill="none" stroke="#381526" d="M380.76,-107.75C377.49,-115.83 373.92,-124.65 370.65,-132.71"/>
<polygon fill="#381526" stroke="#381526" points="384.1,-108.84 384.61,-98.25 377.61,-106.21 384.1,-108.84"/>
<polygon fill="#381526" stroke="#381526" points="367.37,-131.49 366.86,-142.07 373.86,-134.12 367.37,-131.49"/>
</g>
<!-- system.ruby.hnf.cntrl -->
<g id="node17" class="node">
<title>system.ruby.hnf.cntrl</title>
<path fill="#e5bcd0" stroke="#000000" d="M256.87,-106.41C256.87,-106.41 326.87,-106.41 326.87,-106.41 332.87,-106.41 338.87,-112.41 338.87,-118.41 338.87,-118.41 338.87,-130.41 338.87,-130.41 338.87,-136.41 332.87,-142.41 326.87,-142.41 326.87,-142.41 256.87,-142.41 256.87,-142.41 250.87,-142.41 244.87,-136.41 244.87,-130.41 244.87,-130.41 244.87,-118.41 244.87,-118.41 244.87,-112.41 250.87,-106.41 256.87,-106.41"/>
<text text-anchor="middle" x="291.87" y="-120.71" font-family="Arial" font-size="14.00" fill="#000000">ruby.hnf.cntrl</text>
</g>
<!-- system.ruby.hnf.cntrl&#45;&#45;system.ruby.network.routers2 -->
<g id="edge33" class="edge">
<title>system.ruby.hnf.cntrl&#45;&#45;system.ruby.network.routers2</title>
<path fill="none" stroke="#381526" d="M278.54,-151.6C278.25,-152.18 277.96,-152.76 277.68,-153.35"/>
<polygon fill="#381526" stroke="#381526" points="281.73,-153.04 282.99,-142.52 275.44,-149.96 281.73,-153.04"/>
<polygon fill="#381526" stroke="#381526" points="274.41,-152.07 273.14,-162.59 280.69,-155.16 274.41,-152.07"/>
</g>
<!-- system.ruby.snf0.cntrl -->
<g id="node18" class="node">
<title>system.ruby.snf0.cntrl</title>
<path fill="#e5bcd0" stroke="#000000" d="M94.47,-257.36C94.47,-257.36 171.47,-257.36 171.47,-257.36 177.47,-257.36 183.47,-263.36 183.47,-269.36 183.47,-269.36 183.47,-281.36 183.47,-281.36 183.47,-287.36 177.47,-293.36 171.47,-293.36 171.47,-293.36 94.47,-293.36 94.47,-293.36 88.47,-293.36 82.47,-287.36 82.47,-281.36 82.47,-281.36 82.47,-269.36 82.47,-269.36 82.47,-263.36 88.47,-257.36 94.47,-257.36"/>
<text text-anchor="middle" x="132.97" y="-271.66" font-family="Arial" font-size="14.00" fill="#000000">ruby.snf0.cntrl</text>
</g>
<!-- system.ruby.snf0.cntrl&#45;&#45;system.ruby.network.routers3 -->
<g id="edge34" class="edge">
<title>system.ruby.snf0.cntrl&#45;&#45;system.ruby.network.routers3</title>
<path fill="none" stroke="#381526" d="M193.33,-254.84C193.49,-254.78 193.65,-254.73 193.8,-254.68"/>
<polygon fill="#381526" stroke="#381526" points="191.87,-251.64 183.53,-258.17 194.12,-258.26 191.87,-251.64"/>
<polygon fill="#381526" stroke="#381526" points="188.68,-260.12 197.02,-253.58 186.43,-253.49 188.68,-260.12"/>
</g>
<!-- system.ruby.snf1.cntrl -->
<g id="node19" class="node">
<title>system.ruby.snf1.cntrl</title>
<path fill="#e5bcd0" stroke="#000000" d="M117.84,-168.66C117.84,-168.66 194.84,-168.66 194.84,-168.66 200.84,-168.66 206.84,-174.66 206.84,-180.66 206.84,-180.66 206.84,-192.66 206.84,-192.66 206.84,-198.66 200.84,-204.66 194.84,-204.66 194.84,-204.66 117.84,-204.66 117.84,-204.66 111.84,-204.66 105.84,-198.66 105.84,-192.66 105.84,-192.66 105.84,-180.66 105.84,-180.66 105.84,-174.66 111.84,-168.66 117.84,-168.66"/>
<text text-anchor="middle" x="156.34" y="-182.96" font-family="Arial" font-size="14.00" fill="#000000">ruby.snf1.cntrl</text>
</g>
<!-- system.ruby.snf1.cntrl&#45;&#45;system.ruby.network.routers3 -->
<g id="edge35" class="edge">
<title>system.ruby.snf1.cntrl&#45;&#45;system.ruby.network.routers3</title>
<path fill="none" stroke="#381526" d="M185.59,-211.39C188.75,-214.07 191.97,-216.79 195.13,-219.46"/>
<polygon fill="#381526" stroke="#381526" points="187.79,-208.67 177.9,-204.88 183.27,-214.01 187.79,-208.67"/>
<polygon fill="#381526" stroke="#381526" points="192.92,-222.17 202.81,-225.95 197.44,-216.82 192.92,-222.17"/>
</g>
<!-- system.ruby.snf2.cntrl -->
<g id="node20" class="node">
<title>system.ruby.snf2.cntrl</title>
<path fill="#e5bcd0" stroke="#000000" d="M136.81,-338.72C136.81,-338.72 213.81,-338.72 213.81,-338.72 219.81,-338.72 225.81,-344.72 225.81,-350.72 225.81,-350.72 225.81,-362.72 225.81,-362.72 225.81,-368.72 219.81,-374.72 213.81,-374.72 213.81,-374.72 136.81,-374.72 136.81,-374.72 130.81,-374.72 124.81,-368.72 124.81,-362.72 124.81,-362.72 124.81,-350.72 124.81,-350.72 124.81,-344.72 130.81,-338.72 136.81,-338.72"/>
<text text-anchor="middle" x="175.31" y="-353.02" font-family="Arial" font-size="14.00" fill="#000000">ruby.snf2.cntrl</text>
</g>
<!-- system.ruby.snf2.cntrl&#45;&#45;system.ruby.network.routers4 -->
<g id="edge36" class="edge">
<title>system.ruby.snf2.cntrl&#45;&#45;system.ruby.network.routers4</title>
<path fill="none" stroke="#381526" d="M190.73,-329.88C195.85,-320.96 201.56,-311.03 206.68,-302.11"/>
<polygon fill="#381526" stroke="#381526" points="187.65,-328.22 185.7,-338.63 193.72,-331.71 187.65,-328.22"/>
<polygon fill="#381526" stroke="#381526" points="209.82,-303.67 211.77,-293.26 203.75,-300.19 209.82,-303.67"/>
</g>
<!-- system.ruby.snf3.cntrl -->
<g id="node21" class="node">
<title>system.ruby.snf3.cntrl</title>
<path fill="#e5bcd0" stroke="#000000" d="M98.18,-297.79C98.18,-297.79 175.18,-297.79 175.18,-297.79 181.18,-297.79 187.18,-303.79 187.18,-309.79 187.18,-309.79 187.18,-321.79 187.18,-321.79 187.18,-327.79 181.18,-333.79 175.18,-333.79 175.18,-333.79 98.18,-333.79 98.18,-333.79 92.18,-333.79 86.18,-327.79 86.18,-321.79 86.18,-321.79 86.18,-309.79 86.18,-309.79 86.18,-303.79 92.18,-297.79 98.18,-297.79"/>
<text text-anchor="middle" x="136.68" y="-312.09" font-family="Arial" font-size="14.00" fill="#000000">ruby.snf3.cntrl</text>
</g>
<!-- system.ruby.snf3.cntrl&#45;&#45;system.ruby.network.routers4 -->
<g id="edge37" class="edge">
<title>system.ruby.snf3.cntrl&#45;&#45;system.ruby.network.routers4</title>
<path fill="none" stroke="#381526" d="M184.12,-293.27C184.69,-293 185.27,-292.72 185.84,-292.45"/>
<polygon fill="#381526" stroke="#381526" points="182.44,-290.19 174.91,-297.64 185.44,-296.52 182.44,-290.19"/>
<polygon fill="#381526" stroke="#381526" points="187.41,-295.58 194.94,-288.13 184.4,-289.26 187.41,-295.58"/>
</g>
<!-- system.ruby.dma_rni0.cntrl -->
<g id="node22" class="node">
<title>system.ruby.dma_rni0.cntrl</title>
<path fill="#e5bcd0" stroke="#000000" d="M12,-216.91C12,-216.91 120,-216.91 120,-216.91 126,-216.91 132,-222.91 132,-228.91 132,-228.91 132,-240.91 132,-240.91 132,-246.91 126,-252.91 120,-252.91 120,-252.91 12,-252.91 12,-252.91 6,-252.91 0,-246.91 0,-240.91 0,-240.91 0,-228.91 0,-228.91 0,-222.91 6,-216.91 12,-216.91"/>
<text text-anchor="middle" x="66" y="-231.21" font-family="Arial" font-size="14.00" fill="#000000">ruby.dma_rni0.cntrl</text>
</g>
<!-- system.ruby.dma_rni0.cntrl&#45;&#45;system.ruby.network.routers6 -->
<g id="edge38" class="edge">
<title>system.ruby.dma_rni0.cntrl&#45;&#45;system.ruby.network.routers6</title>
<path fill="none" stroke="#381526" d="M134.92,-237.09C134.98,-237.09 135.05,-237.09 135.11,-237.09"/>
<polygon fill="#381526" stroke="#381526" points="142.3,-233.82 132.19,-237 142.07,-240.82 142.3,-233.82"/>
<polygon fill="#381526" stroke="#381526" points="125.19,-240.28 135.3,-237.1 125.42,-233.28 125.19,-240.28"/>
</g>
<!-- system.ruby.dma_rni1.cntrl -->
<g id="node23" class="node">
<title>system.ruby.dma_rni1.cntrl</title>
<path fill="#e5bcd0" stroke="#000000" d="M304.54,-338.77C304.54,-338.77 412.54,-338.77 412.54,-338.77 418.54,-338.77 424.54,-344.77 424.54,-350.77 424.54,-350.77 424.54,-362.77 424.54,-362.77 424.54,-368.77 418.54,-374.77 412.54,-374.77 412.54,-374.77 304.54,-374.77 304.54,-374.77 298.54,-374.77 292.54,-368.77 292.54,-362.77 292.54,-362.77 292.54,-350.77 292.54,-350.77 292.54,-344.77 298.54,-338.77 304.54,-338.77"/>
<text text-anchor="middle" x="358.54" y="-353.07" font-family="Arial" font-size="14.00" fill="#000000">ruby.dma_rni1.cntrl</text>
</g>
<!-- system.ruby.dma_rni1.cntrl&#45;&#45;system.ruby.network.routers7 -->
<g id="edge39" class="edge">
<title>system.ruby.dma_rni1.cntrl&#45;&#45;system.ruby.network.routers7</title>
<path fill="none" stroke="#381526" d="M314.81,-334.04C314.49,-333.88 314.18,-333.71 313.86,-333.55"/>
<polygon fill="#381526" stroke="#381526" points="313.29,-337.2 323.78,-338.7 316.52,-330.99 313.29,-337.2"/>
<polygon fill="#381526" stroke="#381526" points="315.33,-330.37 304.84,-328.86 312.1,-336.58 315.33,-330.37"/>
</g>
<!-- system.ruby.dma_rni2.cntrl -->
<g id="node24" class="node">
<title>system.ruby.dma_rni2.cntrl</title>
<path fill="#e5bcd0" stroke="#000000" d="M269.29,-370.83C269.29,-370.83 377.29,-370.83 377.29,-370.83 383.29,-370.83 389.29,-376.83 389.29,-382.83 389.29,-382.83 389.29,-394.83 389.29,-394.83 389.29,-400.83 383.29,-406.83 377.29,-406.83 377.29,-406.83 269.29,-406.83 269.29,-406.83 263.29,-406.83 257.29,-400.83 257.29,-394.83 257.29,-394.83 257.29,-382.83 257.29,-382.83 257.29,-376.83 263.29,-370.83 269.29,-370.83"/>
<text text-anchor="middle" x="323.29" y="-385.13" font-family="Arial" font-size="14.00" fill="#000000">ruby.dma_rni2.cntrl</text>
</g>
<!-- system.ruby.dma_rni2.cntrl&#45;&#45;system.ruby.network.routers8 -->
<g id="edge40" class="edge">
<title>system.ruby.dma_rni2.cntrl&#45;&#45;system.ruby.network.routers8</title>
<path fill="none" stroke="#381526" d="M314.64,-361.11C311.11,-349.77 307.03,-336.68 303.49,-325.33"/>
<polygon fill="#381526" stroke="#381526" points="311.34,-362.28 317.66,-370.79 318.03,-360.2 311.34,-362.28"/>
<polygon fill="#381526" stroke="#381526" points="306.74,-324 300.43,-315.49 300.06,-326.08 306.74,-324"/>
</g>
<!-- system.ruby.dma_rni3.cntrl -->
<g id="node25" class="node">
<title>system.ruby.dma_rni3.cntrl</title>
<path fill="#e5bcd0" stroke="#000000" d="M152.27,-403.71C152.27,-403.71 260.27,-403.71 260.27,-403.71 266.27,-403.71 272.27,-409.71 272.27,-415.71 272.27,-415.71 272.27,-427.71 272.27,-427.71 272.27,-433.71 266.27,-439.71 260.27,-439.71 260.27,-439.71 152.27,-439.71 152.27,-439.71 146.27,-439.71 140.27,-433.71 140.27,-427.71 140.27,-427.71 140.27,-415.71 140.27,-415.71 140.27,-409.71 146.27,-403.71 152.27,-403.71"/>
<text text-anchor="middle" x="206.27" y="-418.01" font-family="Arial" font-size="14.00" fill="#000000">ruby.dma_rni3.cntrl</text>
</g>
<!-- system.ruby.dma_rni3.cntrl&#45;&#45;system.ruby.network.routers9 -->
<g id="edge41" class="edge">
<title>system.ruby.dma_rni3.cntrl&#45;&#45;system.ruby.network.routers9</title>
<path fill="none" stroke="#381526" d="M211.66,-393.63C213.72,-382.9 216.07,-370.67 218.14,-359.92"/>
<polygon fill="#381526" stroke="#381526" points="208.22,-392.99 209.77,-403.47 215.1,-394.31 208.22,-392.99"/>
<polygon fill="#381526" stroke="#381526" points="221.64,-360.26 220.08,-349.78 214.76,-358.94 221.64,-360.26"/>
</g>
</g>
</svg>
